HIERARCHY
ROOT Hips
{
	OFFSET 0.000000 110.266098 0.000000
	CHANNELS 6 Xposition Yposition Zposition Xrotation Yrotation Zrotation 
	JOINT Spine
	{
		OFFSET 0.000000 9.635201 0.000000
		CHANNELS 3 Xrotation Yrotation Zrotation
		JOINT Spine1
		{
			OFFSET 0.000000 6.527234 0.000000
			CHANNELS 3 Xrotation Yrotation Zrotation
			JOINT Spine1_split
			{
				OFFSET 0.000000 6.527234 0.000000
				CHANNELS 3 Xrotation Yrotation Zrotation
				JOINT Spine2
				{
					OFFSET 0.000000 6.527234 0.000000
					CHANNELS 3 Xrotation Yrotation Zrotation
					JOINT Neck
					{
						OFFSET 0.000000 31.180206 -6.470500
						CHANNELS 3 Xrotation Yrotation Zrotation
						JOINT Head
						{
							OFFSET 0.000000 14.621994 4.742600
							CHANNELS 3 Xrotation Yrotation Zrotation
							JOINT HeadTop_End
							{
								OFFSET 0.000000 19.482605 0.522100
								CHANNELS 3 Xrotation Yrotation Zrotation
								End Site
								{
									OFFSET 0.000000 0.000000 0.000000
								}
							}
						}
					}
					JOINT LeftShoulder
					{
						OFFSET 4.081800 13.702896 -4.946250
						CHANNELS 3 Xrotation Yrotation Zrotation
						JOINT LeftShoulder_split
						{
							OFFSET 4.081800 13.702896 -4.946250
							CHANNELS 3 Xrotation Yrotation Zrotation
							JOINT LeftArm
							{
								OFFSET 15.828513 -0.827515 -0.213200
								CHANNELS 3 Xrotation Yrotation Zrotation
								JOINT LeftForeArm
								{
									OFFSET 32.883751 0.000000 0.000000
									CHANNELS 3 Xrotation Yrotation Zrotation
									JOINT LeftHand
									{
										OFFSET 30.158207 0.000000 0.000000
										CHANNELS 3 Xrotation Yrotation Zrotation
										JOINT LeftHandMiddle1
										{
											OFFSET 13.592499 0.000000 0.000000
											CHANNELS 3 Xrotation Yrotation Zrotation
											JOINT LeftHandMiddle2
											{
												OFFSET 2.648598 0.000000 0.000000
												CHANNELS 3 Xrotation Yrotation Zrotation
												JOINT LeftHandMiddle3
												{
													OFFSET 3.529404 0.000000 0.000000
													CHANNELS 3 Xrotation Yrotation Zrotation
													JOINT LeftHandMiddle4
													{
														OFFSET 2.576363 0.000000 0.000000
														CHANNELS 3 Xrotation Yrotation Zrotation
														End Site
														{
															OFFSET 0.000000 0.000000 0.000000
														}
													}
												}
											}
										}
										JOINT LeftHandRing1
										{
											OFFSET 12.936806 -0.039825 -3.073210
											CHANNELS 3 Xrotation Yrotation Zrotation
											JOINT LeftHandRing2
											{
												OFFSET 2.705498 0.000000 0.000000
												CHANNELS 3 Xrotation Yrotation Zrotation
												JOINT LeftHandRing3
												{
													OFFSET 2.078003 0.000000 0.000000
													CHANNELS 3 Xrotation Yrotation Zrotation
													JOINT LeftHandRing4
													{
														OFFSET 3.107903 0.000000 0.000000
														CHANNELS 3 Xrotation Yrotation Zrotation
														End Site
														{
															OFFSET 0.000000 0.000000 0.000000
														}
													}
												}
											}
										}
										JOINT LeftHandThumb1
										{
											OFFSET 5.220703 -2.164078 4.918424
											CHANNELS 3 Xrotation Yrotation Zrotation
											JOINT LeftHandThumb2
											{
												OFFSET 1.874695 -1.082352 1.082355
												CHANNELS 3 Xrotation Yrotation Zrotation
												JOINT LeftHandThumb3
												{
													OFFSET 2.096115 -1.210190 1.210191
													CHANNELS 3 Xrotation Yrotation Zrotation
													JOINT LeftHandThumb4
													{
														OFFSET 2.509018 -1.448578 1.448583
														CHANNELS 3 Xrotation Yrotation Zrotation
														End Site
														{
															OFFSET 0.000000 0.000000 0.000000
														}
													}
												}
											}
										}
										JOINT LeftHandIndex1
										{
											OFFSET 13.490601 -0.379623 3.264517
											CHANNELS 3 Xrotation Yrotation Zrotation
											JOINT LeftHandIndex2
											{
												OFFSET 2.599197 0.000000 0.000000
												CHANNELS 3 Xrotation Yrotation Zrotation
												JOINT LeftHandIndex3
												{
													OFFSET 2.436203 0.000000 0.000000
													CHANNELS 3 Xrotation Yrotation Zrotation
													JOINT LeftHandIndex4
													{
														OFFSET 3.129944 0.000000 0.000000
														CHANNELS 3 Xrotation Yrotation Zrotation
														End Site
														{
															OFFSET 0.000000 0.000000 0.000000
														}
													}
												}
											}
										}
										JOINT LeftHandPinky1
										{
											OFFSET 11.531700 -0.354462 -5.659079
											CHANNELS 3 Xrotation Yrotation Zrotation
											JOINT LeftHandPinky2
											{
												OFFSET 2.643105 0.000000 0.000000
												CHANNELS 3 Xrotation Yrotation Zrotation
												JOINT LeftHandPinky3
												{
													OFFSET 2.080803 0.000000 0.000000
													CHANNELS 3 Xrotation Yrotation Zrotation
													JOINT LeftHandPinky4
													{
														OFFSET 1.726898 0.000000 0.000000
														CHANNELS 3 Xrotation Yrotation Zrotation
														End Site
														{
															OFFSET 0.000000 0.000000 0.000000
														}
													}
												}
											}
										}
									}
								}
							}
						}
					}
					JOINT RightShoulder
					{
						OFFSET -4.081800 13.702896 -4.946250
						CHANNELS 3 Xrotation Yrotation Zrotation
						JOINT RightShoulder_split
						{
							OFFSET -4.081800 13.702896 -4.946250
							CHANNELS 3 Xrotation Yrotation Zrotation
							JOINT RightArm
							{
								OFFSET -15.828513 -0.827515 -0.213200
								CHANNELS 3 Xrotation Yrotation Zrotation
								JOINT RightForeArm
								{
									OFFSET -32.883751 0.000000 0.000000
									CHANNELS 3 Xrotation Yrotation Zrotation
									JOINT RightHand
									{
										OFFSET -30.158207 0.000000 0.000000
										CHANNELS 3 Xrotation Yrotation Zrotation
										JOINT RightHandMiddle1
										{
											OFFSET -13.592499 0.000000 0.000000
											CHANNELS 3 Xrotation Yrotation Zrotation
											JOINT RightHandMiddle2
											{
												OFFSET -2.648598 0.000000 0.000000
												CHANNELS 3 Xrotation Yrotation Zrotation
												JOINT RightHandMiddle3
												{
													OFFSET -3.529404 0.000000 0.000000
													CHANNELS 3 Xrotation Yrotation Zrotation
													JOINT RightHandMiddle4
													{
														OFFSET -2.576363 0.000000 0.000000
														CHANNELS 3 Xrotation Yrotation Zrotation
														End Site
														{
															OFFSET 0.000000 0.000000 0.000000
														}
													}
												}
											}
										}
										JOINT RightHandPinky1
										{
											OFFSET -11.531700 -0.354462 -5.659079
											CHANNELS 3 Xrotation Yrotation Zrotation
											JOINT RightHandPinky2
											{
												OFFSET -2.643105 0.000000 0.000000
												CHANNELS 3 Xrotation Yrotation Zrotation
												JOINT RightHandPinky3
												{
													OFFSET -2.080803 0.000000 0.000000
													CHANNELS 3 Xrotation Yrotation Zrotation
													JOINT RightHandPinky4
													{
														OFFSET -1.726898 0.000000 0.000000
														CHANNELS 3 Xrotation Yrotation Zrotation
														End Site
														{
															OFFSET 0.000000 0.000000 0.000000
														}
													}
												}
											}
										}
										JOINT RightHandRing1
										{
											OFFSET -12.936806 -0.039825 -3.073210
											CHANNELS 3 Xrotation Yrotation Zrotation
											JOINT RightHandRing2
											{
												OFFSET -2.705498 0.000000 0.000000
												CHANNELS 3 Xrotation Yrotation Zrotation
												JOINT RightHandRing3
												{
													OFFSET -2.078003 0.000000 0.000000
													CHANNELS 3 Xrotation Yrotation Zrotation
													JOINT RightHandRing4
													{
														OFFSET -3.107903 0.000000 0.000000
														CHANNELS 3 Xrotation Yrotation Zrotation
														End Site
														{
															OFFSET 0.000000 0.000000 0.000000
														}
													}
												}
											}
										}
										JOINT RightHandIndex1
										{
											OFFSET -13.490601 -0.379623 3.264517
											CHANNELS 3 Xrotation Yrotation Zrotation
											JOINT RightHandIndex2
											{
												OFFSET -2.599197 0.000000 0.000000
												CHANNELS 3 Xrotation Yrotation Zrotation
												JOINT RightHandIndex3
												{
													OFFSET -2.436203 0.000000 0.000000
													CHANNELS 3 Xrotation Yrotation Zrotation
													JOINT RightHandIndex4
													{
														OFFSET -3.129944 0.000000 0.000000
														CHANNELS 3 Xrotation Yrotation Zrotation
														End Site
														{
															OFFSET 0.000000 0.000000 0.000000
														}
													}
												}
											}
										}
										JOINT RightHandThumb1
										{
											OFFSET -5.220703 -2.164078 4.918424
											CHANNELS 3 Xrotation Yrotation Zrotation
											JOINT RightHandThumb2
											{
												OFFSET -1.874695 -1.082352 1.082355
												CHANNELS 3 Xrotation Yrotation Zrotation
												JOINT RightHandThumb3
												{
													OFFSET -2.096115 -1.210190 1.210191
													CHANNELS 3 Xrotation Yrotation Zrotation
													JOINT RightHandThumb4
													{
														OFFSET -2.509018 -1.448578 1.448583
														CHANNELS 3 Xrotation Yrotation Zrotation
														End Site
														{
															OFFSET 0.000000 0.000000 0.000000
														}
													}
												}
											}
										}
									}
								}
							}
						}
					}
				}
			}
		}
	}
	JOINT LeftUpLeg
	{
		OFFSET 10.932900 -7.228104 -0.321800
		CHANNELS 3 Xrotation Yrotation Zrotation
		JOINT LeftLeg
		{
			OFFSET 0.294908 -42.777645 2.699200
			CHANNELS 3 Xrotation Yrotation Zrotation
			JOINT LeftFoot
			{
				OFFSET -0.294908 -48.804955 -5.540400
				CHANNELS 3 Xrotation Yrotation Zrotation
				JOINT LeftToeBase
				{
					OFFSET 2.773000 -11.455400 15.285000
					CHANNELS 3 Xrotation Yrotation Zrotation
					JOINT LeftToe_End
					{
						OFFSET 1.452800 0.289800 7.868500
						CHANNELS 3 Xrotation Yrotation Zrotation
						End Site
						{
							OFFSET 0.000000 0.000000 0.000000
						}
					}
				}
			}
		}
	}
	JOINT RightUpLeg
	{
		OFFSET -10.932900 -7.228104 -0.321800
		CHANNELS 3 Xrotation Yrotation Zrotation
		JOINT RightLeg
		{
			OFFSET -0.294992 -42.777657 2.699400
			CHANNELS 3 Xrotation Yrotation Zrotation
			JOINT RightFoot
			{
				OFFSET 0.294992 -48.804947 -5.540500
				CHANNELS 3 Xrotation Yrotation Zrotation
				JOINT RightToeBase
				{
					OFFSET -2.773000 -11.455400 15.285000
					CHANNELS 3 Xrotation Yrotation Zrotation
					JOINT RightToe_End
					{
						OFFSET -1.452800 0.289800 7.868501
						CHANNELS 3 Xrotation Yrotation Zrotation
						End Site
						{
							OFFSET 0.000000 0.000000 0.000000
						}
					}
				}
			}
		}
	}
}
MOTION
Frames: 5
Frame Time: 0.016667
0.062261 107.222542 -5.550278 -1.305427 1.775711 -0.205219 5.202039 1.921406 -0.196580 1.287085 0.402566 0.166966 0.000000 0.000000 0.000000 1.285276 0.407260 0.169080 -16.159717 -1.327583 2.104843 3.606275 -1.449382 -3.766837 -0.000000 -0.000000 -0.000000 2.902859 7.333068 5.619272 0.000000 0.000000 0.000000 -1.969642 -17.560217 -31.884440 -0.000028 -108.584947 -0.000028 21.247346 23.570052 -76.388521 2.193800 7.781369 -82.792848 4.867338 5.768057 -80.304508 0.714521 2.805688 -28.569906 0.000000 -0.000000 -0.000000 1.249744 7.902780 -86.093496 3.734858 5.456204 -68.762902 0.943612 3.190090 -32.948279 0.000000 -0.000000 0.000000 48.436389 -55.243803 1.889136 16.609154 45.483200 -7.480855 9.384268 60.569366 22.734563 0.000001 -0.000001 -0.000001 -0.266278 3.547725 -82.078452 4.347683 5.655283 -75.086448 1.096853 3.414552 -35.607958 0.000000 -0.000000 -0.000000 2.505559 7.898908 -84.418474 1.035500 3.327356 -34.564708 2.885318 5.045985 -59.500530 0.000000 0.000000 0.000001 5.694227 -5.630157 -5.494845 0.000000 0.000000 0.000000 2.126366 0.109328 30.904045 -0.000004 115.962487 0.000003 32.990982 -21.110911 64.404162 -3.944663 -5.265269 78.353096 3.017353 -4.359517 69.362907 0.966522 -2.842440 37.552701 -0.000001 0.000000 0.000002 -2.552371 -3.065064 56.530365 1.253170 -3.180236 43.005391 1.565990 -3.485063 48.382212 -0.000001 -0.000000 0.000001 -4.974617 -4.036158 71.982578 3.110229 -4.393287 70.579794 0.431517 -1.959583 24.835121 -0.000001 -0.000001 0.000000 1.509302 -2.130692 70.745815 3.679223 -4.553565 77.865236 0.897694 -2.750695 36.142147 0.000001 -0.000001 0.000002 34.036789 46.601677 8.145988 15.845011 -44.633097 -11.113753 -19.175147 -63.330661 -55.315025 -0.000005 0.000001 0.000001 -13.971103 11.027157 10.545760 16.148630 2.441587 1.852258 -0.758268 0.226289 -8.601356 0.049369 0.000020 -0.037332 0.000000 -0.000000 0.000000 -14.163569 -8.268398 -9.132520 16.877537 -7.084991 -2.270835 -1.983248 -0.229314 9.240684 3.441741 -0.000005 0.000001 -0.000000 0.000001 0.000000 
-0.025834 107.181602 -5.978133 -1.398556 2.036158 -0.073014 5.501844 1.739449 -0.181700 1.333134 0.366024 0.160918 0.000000 0.000000 0.000000 1.331625 0.370626 0.162675 -16.353035 -1.219656 1.907719 4.045613 -1.391543 -3.674149 -0.000000 -0.000000 -0.000000 2.703871 6.978280 6.464166 0.000000 0.000000 0.000000 2.357091 -21.232107 -28.779805 0.000013 -104.932203 0.000003 17.591512 25.323000 -78.175934 2.193821 7.781366 -82.792848 4.867326 5.768050 -80.304515 0.714515 2.805686 -28.569896 0.000000 -0.000000 0.000001 1.249760 7.902752 -86.093530 3.734854 5.456197 -68.762902 0.943593 3.190099 -32.948269 0.000000 0.000000 -0.000000 48.436409 -55.243820 1.889108 16.609164 45.483220 -7.480855 9.384283 60.569366 22.734566 -0.000001 0.000001 -0.000000 -0.266259 3.547712 -82.078465 4.347680 5.655271 -75.086448 1.096844 3.414545 -35.607969 0.000000 -0.000000 -0.000002 2.505570 7.898900 -84.418488 1.035496 3.327368 -34.564681 2.885314 5.046000 -59.500544 -0.000001 -0.000000 0.000000 5.540210 -5.824872 -6.053384 0.000000 0.000000 0.000000 5.794740 5.267999 27.748501 0.000018 112.354590 -0.000022 29.888184 -23.212989 66.735156 -3.944687 -5.265258 78.353068 3.017359 -4.359537 69.362893 0.966527 -2.842442 37.552711 -0.000000 0.000000 0.000001 -2.552385 -3.065066 56.530361 1.253184 -3.180252 43.005381 1.565985 -3.485032 48.382212 -0.000001 -0.000001 0.000002 -4.974619 -4.036167 71.982571 3.110217 -4.393273 70.579794 0.431514 -1.959631 24.835106 -0.000000 0.000000 0.000000 1.509297 -2.130688 70.745802 3.679221 -4.553551 77.865208 0.897698 -2.750704 36.142161 0.000001 -0.000000 0.000000 34.036769 46.601684 8.145983 15.844996 -44.633107 -11.113753 -19.175107 -63.330655 -55.314987 -0.000001 0.000001 -0.000000 -14.143642 10.986194 10.441112 16.072342 2.222966 1.795428 -0.425104 0.202740 -8.499281 0.049432 0.000006 -0.037426 -0.000000 0.000001 0.000000 -14.437929 -8.218106 -9.254621 17.149586 -7.331366 -2.301779 -1.887008 -0.216448 9.208623 3.399598 -0.000009 0.000002 0.000000 0.000001 -0.000000 
-0.113926 107.133949 -6.368272 -1.429851 2.228788 0.051756 5.797686 1.558614 -0.174946 1.380147 0.331404 0.162703 0.000000 0.000000 0.000000 1.378844 0.336167 0.164095 -16.669143 -1.104272 1.697985 4.362790 -1.312394 -3.632158 0.000000 -0.000000 0.000000 2.556668 6.488446 7.033926 0.000000 0.000000 0.000000 6.520814 -24.706838 -25.523773 0.000004 -101.075086 0.000010 13.200350 25.838749 -76.674064 2.193828 7.781360 -82.792862 4.867346 5.768045 -80.304508 0.714483 2.805667 -28.569909 -0.000000 -0.000002 -0.000001 1.249746 7.902760 -86.093517 3.734862 5.456209 -68.762902 0.943596 3.190083 -32.948266 0.000000 -0.000000 0.000001 48.436437 -55.243810 1.889134 16.609104 45.483200 -7.480823 9.384257 60.569359 22.734602 0.000001 -0.000001 -0.000000 -0.266262 3.547716 -82.078458 4.347670 5.655256 -75.086448 1.096847 3.414537 -35.607982 0.000000 0.000001 -0.000001 2.505587 7.898895 -84.418474 1.035492 3.327344 -34.564705 2.885291 5.045991 -59.500524 0.000000 0.000000 -0.000000 5.393274 -5.837269 -6.460588 0.000000 0.000000 0.000000 9.588885 10.266617 24.267030 -0.000034 108.562237 0.000039 25.697424 -25.176583 65.588749 -3.944672 -5.265275 78.353068 3.017358 -4.359529 69.362886 0.966516 -2.842431 37.552711 0.000000 0.000000 -0.000000 -2.552381 -3.065078 56.530354 1.253177 -3.180235 43.005385 1.565989 -3.485065 48.382208 -0.000000 -0.000001 0.000002 -4.974609 -4.036168 71.982571 3.110214 -4.393280 70.579794 0.431520 -1.959610 24.835113 0.000000 0.000000 -0.000000 1.509311 -2.130702 70.745815 3.679198 -4.553549 77.865215 0.897695 -2.750717 36.142134 -0.000000 -0.000000 0.000000 34.036793 46.601674 8.145993 15.845009 -44.633107 -11.113746 -19.175123 -63.330648 -55.315018 -0.000001 -0.000000 -0.000000 -14.362160 10.937890 10.352997 16.032701 2.075378 1.736149 -0.133990 0.182818 -8.416681 0.049841 0.000012 -0.037683 0.000000 0.000000 0.000000 -14.783523 -8.155579 -9.370794 17.447915 -7.520607 -2.322773 -1.813540 -0.205008 9.167661 3.311686 0.000006 0.000000 -0.000000 0.000001 0.000000 
-0.201853 107.076065 -6.716969 -1.389935 2.339716 0.163741 6.098630 1.410919 -0.187384 1.431419 0.305185 0.171216 0.000000 0.000000 0.000000 1.430187 0.310444 0.172281 -17.107056 -0.989657 1.483332 4.468746 -1.231774 -3.652994 -0.000001 0.000000 0.000000 2.463495 5.899669 7.284623 0.000000 0.000000 0.000000 10.530710 -27.913281 -22.224734 -0.000244 -97.043034 -0.000244 8.811109 25.021928 -72.676717 2.193823 7.781385 -82.792855 4.867330 5.768054 -80.304488 0.714500 2.805686 -28.569930 -0.000000 0.000000 0.000002 1.249765 7.902771 -86.093517 3.734870 5.456202 -68.762923 0.943619 3.190103 -32.948259 -0.000000 0.000000 0.000001 48.436423 -55.243806 1.889138 16.609181 45.483206 -7.480892 9.384250 60.569346 22.734599 -0.000001 0.000001 0.000001 -0.266243 3.547725 -82.078458 4.347669 5.655238 -75.086448 1.096819 3.414538 -35.607962 -0.000000 -0.000000 -0.000001 2.505587 7.898914 -84.418481 1.035499 3.327355 -34.564685 2.885311 5.045987 -59.500524 0.000000 -0.000001 -0.000000 5.264904 -5.652705 -6.660637 0.000000 0.000000 0.000000 13.514806 14.859872 20.614959 -0.000061 104.698829 0.000046 20.980365 -26.501317 61.490800 -3.944674 -5.265258 78.353089 3.017365 -4.359544 69.362907 0.966518 -2.842438 37.552687 -0.000000 0.000000 -0.000000 -2.552374 -3.065065 56.530389 1.253186 -3.180246 43.005378 1.565982 -3.485063 48.382212 0.000000 -0.000001 0.000005 -4.974609 -4.036154 71.982585 3.110236 -4.393296 70.579787 0.431528 -1.959601 24.835104 -0.000000 0.000000 0.000000 1.509317 -2.130683 70.745822 3.679213 -4.553562 77.865236 0.897701 -2.750708 36.142134 -0.000001 0.000000 0.000000 34.036796 46.601705 8.145994 15.845013 -44.633097 -11.113733 -19.175138 -63.330668 -55.315035 -0.000001 -0.000000 -0.000000 -14.646726 10.878039 10.290167 16.057404 2.012743 1.677189 0.099259 0.167430 -8.359428 0.050152 0.000015 -0.037918 -0.000000 0.000002 0.000000 -15.217335 -8.077063 -9.475458 17.786279 -7.642327 -2.332066 -1.769312 -0.195500 9.115442 3.163338 -0.000003 -0.000001 -0.000000 0.000001 0.000000 
-0.289413 107.006004 -7.019616 -1.268102 2.361523 0.254375 6.411946 1.323099 -0.224606 1.488887 0.292362 0.183956 0.000000 0.000000 0.000000 1.487589 0.298476 0.184769 -17.655578 -0.884542 1.278266 4.291515 -1.159869 -3.738562 -0.000001 -0.000000 -0.000000 2.418083 5.256990 7.209105 0.000000 0.000000 0.000000 14.370129 -30.769265 -19.041835 -0.003522 -92.918686 -0.003422 5.248207 23.227383 -67.438747 2.193815 7.781360 -82.792862 4.867349 5.768064 -80.304481 0.714511 2.805673 -28.569904 0.000000 -0.000000 -0.000000 1.249768 7.902753 -86.093530 3.734847 5.456190 -68.762902 0.943608 3.190100 -32.948255 0.000000 0.000000 -0.000001 48.436430 -55.243823 1.889146 16.609183 45.483217 -7.480894 9.384236 60.569353 22.734624 0.000001 0.000001 0.000000 -0.266256 3.547713 -82.078479 4.347670 5.655280 -75.086455 1.096846 3.414548 -35.607965 0.000000 -0.000001 -0.000000 2.505569 7.898894 -84.418488 1.035496 3.327341 -34.564681 2.885323 5.045982 -59.500530 -0.000000 -0.000001 0.000000 5.165096 -5.285081 -6.604076 0.000000 0.000000 0.000000 17.504868 18.853180 17.014421 -0.000158 100.878021 0.000169 16.534409 -27.031566 55.565597 -3.944658 -5.265255 78.353082 3.017352 -4.359510 69.362886 0.966517 -2.842457 37.552708 -0.000000 0.000000 -0.000000 -2.552364 -3.065061 56.530365 1.253170 -3.180233 43.005381 1.565988 -3.485071 48.382212 -0.000000 0.000000 0.000001 -4.974605 -4.036138 71.982571 3.110209 -4.393266 70.579801 0.431508 -1.959603 24.835111 0.000000 0.000000 0.000002 1.509321 -2.130667 70.745822 3.679218 -4.553562 77.865236 0.897692 -2.750704 36.142127 0.000001 -0.000000 0.000000 34.036820 46.601687 8.145959 15.845018 -44.633097 -11.113741 -19.175114 -63.330655 -55.314997 -0.000001 -0.000000 0.000000 -15.017491 10.802216 10.263411 16.168518 2.042455 1.622402 0.261730 0.157146 -8.332945 0.050047 0.000029 -0.037829 -0.000000 0.000000 0.000000 -15.750473 -7.981289 -9.560062 18.170084 -7.691887 -2.326003 -1.758249 -0.188260 9.048961 2.955496 -0.000010 0.000002 0.000000 0.000001 -0.000000 
